<?xml version="1.0" encoding="iso-8859-1"?>
<!-- Generator: Adobe Illustrator 19.0.0, SVG Export Plug-In . SVG Version: 6.00 Build 0)  -->
<svg version="1.1" id="Capa_1" xmlns="http://www.w3.org/2000/svg" xmlns:xlink="http://www.w3.org/1999/xlink" x="0px" y="0px"
	 viewBox="0 0 500.506 500.506" style="enable-background:new 0 0 500.506 500.506;" xml:space="preserve">
<path style="fill:#D4E1F4;" d="M249.731,224.784c14.106,0,25.6,11.494,25.6,25.6c0,14.106-11.494,25.6-25.6,25.6
	s-25.6-11.494-25.6-25.6C224.131,236.278,235.624,224.784,249.731,224.784z"/>
<g>
	<polygon style="fill:#00BBD3;" points="345.861,179.331 248.686,96.261 150.988,179.331 132.18,195.527 103.445,161.567 
		248.686,37.747 393.927,161.567 364.669,195.527 	"/>
	<rect x="208.98" y="389.878" style="fill:#00BBD3;" width="79.412" height="73.143"/>
</g>
<g>
	<rect x="345.861" y="250.384" style="fill:#D4E1F4;" width="138.449" height="212.637"/>
	<rect x="15.151" y="250.384" style="fill:#D4E1F4;" width="135.837" height="212.637"/>
</g>
<path style="fill:#4DCFE0;" d="M345.861,250.384V463.02h-57.469v-73.143H208.98v73.143h-57.992V250.384v-71.053l97.698-83.069
	l97.176,83.069V250.384z M275.331,250.384c0-14.106-11.494-25.6-25.6-25.6s-25.6,11.494-25.6,25.6c0,14.106,11.494,25.6,25.6,25.6
	S275.331,264.49,275.331,250.384z"/>
<g>
	<path style="fill:#3A2C51;" d="M304.065,463.02h-31.347v-57.469h-48.065v57.469h-31.347v-73.143
		c0-8.882,6.792-15.673,15.673-15.673h79.412c8.882,0,15.673,6.792,15.673,15.673V463.02z"/>
	<path style="fill:#3A2C51;" d="M484.31,234.71H361.535v-24.033c1.045,0,2.09,0.522,3.135,0.522c4.18,0,8.882-2.09,12.016-5.224
		l29.257-33.959c2.612-3.135,4.18-7.314,3.657-11.494c-0.522-4.18-2.09-7.837-5.224-10.971L258.612,25.731
		c-5.747-5.224-14.629-5.224-20.376,0L93.518,149.551c-6.792,5.747-7.314,15.673-1.567,21.943l28.735,33.959
		c2.612,3.135,6.792,5.225,10.971,5.747c1.567,0,3.135,0,4.18-0.522v24.033H15.673C6.792,234.71,0,241.502,0,250.384V463.02
		c0,8.882,6.792,15.673,15.673,15.673h469.159c8.882,0,15.673-6.792,15.673-15.673V250.384
		C499.984,241.502,493.192,234.71,484.31,234.71z M248.686,116.637l81.502,69.486v260.702H166.661v-260.18L248.686,116.637z
		 M125.388,163.135L248.686,58.122l123.298,105.012l-8.882,9.927l-4.702-4.18c-1.567-1.567-3.135-3.135-5.224-4.18l-94.563-80.457
		c-3.135-2.612-6.792-3.657-9.927-3.657c-3.657,0-7.314,1.045-9.927,3.657l-95.086,80.98c-2.09,1.045-3.657,2.612-4.702,4.18
		l-4.702,4.18L125.388,163.135z M30.824,266.057h104.49v181.29H30.824C30.824,447.347,30.824,266.057,30.824,266.057z
		 M468.637,447.347H361.535v-181.29h107.102V447.347z"/>
	<path style="fill:#3A2C51;" d="M288.392,350.171h-79.935c-8.882,0-15.673-6.792-15.673-15.673s6.792-15.673,15.673-15.673h79.935
		c8.882,0,15.673,6.792,15.673,15.673S297.273,350.171,288.392,350.171z"/>
	<path style="fill:#3A2C51;" d="M59.037,341.812c-8.882,0-15.673-6.792-15.673-15.673v-19.853c0-8.882,6.792-15.673,15.673-15.673
		s15.673,6.792,15.673,15.673v19.853C74.71,335.02,67.918,341.812,59.037,341.812z"/>
	<path style="fill:#3A2C51;" d="M106.057,341.812c-8.882,0-15.673-6.792-15.673-15.673v-19.853c0-8.882,6.792-15.673,15.673-15.673
		s15.673,6.792,15.673,15.673v19.853C121.731,335.02,114.939,341.812,106.057,341.812z"/>
	<path style="fill:#3A2C51;" d="M59.037,418.612c-8.882,0-15.673-6.792-15.673-15.673v-19.853c0-8.882,6.792-15.673,15.673-15.673
		s15.673,6.792,15.673,15.673v19.853C74.71,411.82,67.918,418.612,59.037,418.612z"/>
	<path style="fill:#3A2C51;" d="M106.057,418.612c-8.882,0-15.673-6.792-15.673-15.673v-19.853c0-8.882,6.792-15.673,15.673-15.673
		s15.673,6.792,15.673,15.673v19.853C121.731,411.82,114.939,418.612,106.057,418.612z"/>
	<path style="fill:#3A2C51;" d="M392.359,341.812c-8.882,0-15.673-6.792-15.673-15.673v-19.853c0-8.882,6.792-15.673,15.673-15.673
		s15.673,6.792,15.673,15.673v19.853C408.033,335.02,401.241,341.812,392.359,341.812z"/>
	<path style="fill:#3A2C51;" d="M439.38,341.812c-8.882,0-15.673-6.792-15.673-15.673v-19.853c0-8.882,6.792-15.673,15.673-15.673
		c8.882,0,15.673,6.792,15.673,15.673v19.853C455.053,335.02,448.261,341.812,439.38,341.812z"/>
	<path style="fill:#3A2C51;" d="M392.359,418.612c-8.882,0-15.673-6.792-15.673-15.673v-19.853c0-8.882,6.792-15.673,15.673-15.673
		s15.673,6.792,15.673,15.673v19.853C408.033,411.82,401.241,418.612,392.359,418.612z"/>
	<path style="fill:#3A2C51;" d="M439.38,418.612c-8.882,0-15.673-6.792-15.673-15.673v-19.853c0-8.882,6.792-15.673,15.673-15.673
		c8.882,0,15.673,6.792,15.673,15.673v19.853C455.053,411.82,448.261,418.612,439.38,418.612z"/>
	<path style="fill:#3A2C51;" d="M249.731,291.657c-22.988,0-41.273-18.286-41.273-41.273s18.286-41.273,41.273-41.273
		s41.273,18.286,41.273,41.273S272.718,291.657,249.731,291.657z M249.731,240.457c-5.224,0-9.927,4.702-9.927,9.927
		c0,5.225,4.702,9.927,9.927,9.927s9.927-4.702,9.927-9.927C259.657,245.159,254.955,240.457,249.731,240.457z"/>
</g>
<g>
</g>
<g>
</g>
<g>
</g>
<g>
</g>
<g>
</g>
<g>
</g>
<g>
</g>
<g>
</g>
<g>
</g>
<g>
</g>
<g>
</g>
<g>
</g>
<g>
</g>
<g>
</g>
<g>
</g>
</svg>
